<svg width="168" height="50" viewBox="0 0 168 50" fill="none" xmlns="http://www.w3.org/2000/svg">
<path d="M162.516 37.3363V0H168V37.3363H162.516Z" fill="white"/>
<path fill-rule="evenodd" clip-rule="evenodd" d="M139.927 36.1986C141.69 37.2871 143.646 37.8314 145.797 37.8314C147.352 37.8314 148.791 37.5463 150.112 36.9761C150.128 36.9692 150.144 36.9623 150.16 36.9553C150.944 35.1757 151.908 31.9553 152.676 29.156C152.639 29.2233 152.601 29.2901 152.562 29.3564C151.94 30.4449 151.097 31.3132 150.035 31.9611C148.972 32.609 147.78 32.933 146.458 32.933C145.136 32.933 143.944 32.609 142.882 31.9611C141.819 31.3132 140.964 30.4449 140.316 29.3564C139.694 28.242 139.383 27.0239 139.383 25.7021C139.383 24.3544 139.694 23.1363 140.316 22.0477C140.964 20.9592 141.819 20.091 142.882 19.443C143.97 18.7692 145.162 18.4323 146.458 18.4323C147.78 18.4323 148.972 18.7692 150.035 19.443C151.097 20.091 151.94 20.9592 152.562 22.0477C153.209 23.1363 153.533 24.3544 153.533 25.7021C153.533 25.7743 153.532 25.8462 153.531 25.9177C153.532 25.914 153.532 25.9104 153.533 25.9067L153.592 37.3649H158.393V14.0867C158.172 14.0867 157.936 14.0799 157.692 14.0727C156.518 14.0385 155.156 13.9988 154.32 14.6958C153.84 15.0953 153.533 15.737 153.533 16.7606C152.574 15.7498 151.434 14.9723 150.112 14.4281C148.791 13.8579 147.352 13.5728 145.797 13.5728C143.646 13.5728 141.69 14.117 139.927 15.2056C138.165 16.2941 136.752 17.7584 135.69 19.5986C134.653 21.4387 134.135 23.4732 134.135 25.7021C134.135 27.931 134.653 29.9655 135.69 31.8056C136.752 33.6198 138.165 35.0841 139.927 36.1986Z" fill="white"/>
<path d="M124.68 37.2807V18.4222H118.759V13.9472H122.325H124.797V6.23795H130.053V13.9472C130.053 13.9472 131.643 13.9472 132.662 13.9472C135.693 13.9472 135.271 18.4222 135.271 18.4222H130.17V37.2807H124.68Z" fill="white"/>
<path d="M111.871 37.3368V14.0017H117.355V37.3368H111.871Z" fill="white"/>
<path d="M75.3336 37.3365V14.0014H78.0754H80.8172V37.3365H75.3336Z" fill="white"/>
<path fill-rule="evenodd" clip-rule="evenodd" d="M52.7823 36.1695C54.5453 37.2585 56.5028 37.803 58.6548 37.803C60.1963 37.803 61.6233 37.5229 62.9357 36.9628C63.726 35.2087 64.7095 32.0054 65.492 29.204C65.469 29.2443 65.4456 29.2845 65.4218 29.3245C64.7996 30.4135 63.9569 31.2821 62.8939 31.9303C61.8309 32.5785 60.6382 32.9026 59.3159 32.9026C57.9937 32.9026 56.801 32.5785 55.738 31.9303C54.675 31.2821 53.8194 30.4135 53.1712 29.3245C52.5489 28.2096 52.2378 26.991 52.2378 25.6687C52.2378 24.3204 52.5489 23.1018 53.1712 22.0128C53.8194 20.9239 54.675 20.0553 55.738 19.4071C56.8269 18.733 58.0196 18.3959 59.3159 18.3959C60.6382 18.3959 61.8309 18.733 62.8939 19.4071C63.9569 20.0553 64.7996 20.9239 65.4218 22.0128C66.07 23.1018 66.3941 24.3204 66.3941 25.6687C66.3941 25.8325 66.3893 25.9945 66.3797 26.1545L66.3797 34.6671C66.3845 34.6623 66.3893 34.6575 66.3941 34.6527V37.3363H71.2555V0H68.5136H65.7718V16.1013C64.8385 15.2975 63.7625 14.6752 62.5439 14.2345C61.3512 13.7677 60.0549 13.5344 58.6548 13.5344C56.5028 13.5344 54.5453 14.0789 52.7823 15.1679C51.0192 16.2568 49.6062 17.7218 48.5432 19.5627C47.5061 21.4035 46.9875 23.4389 46.9875 25.6687C46.9875 27.8985 47.5061 29.9338 48.5432 31.7747C49.6062 33.5897 51.0192 35.0546 52.7823 36.1695Z" fill="white"/>
<path fill-rule="evenodd" clip-rule="evenodd" d="M89.7049 48.8095C91.2605 49.3539 92.9458 49.6262 94.7607 49.6262C97.0423 49.6262 99.1813 49.1465 101.178 48.1872C103.174 47.2278 104.769 45.8407 105.961 44.0257C107.18 42.2108 107.789 40.0328 107.789 37.4919V14.0012H102.928V16.7236C101.969 15.7124 100.828 14.9346 99.5054 14.3901C98.1831 13.8197 96.7442 13.5345 95.1885 13.5345C93.0366 13.5345 91.0791 14.079 89.316 15.1679C87.5529 16.2569 86.1399 17.7218 85.0769 19.5627C84.0398 21.4036 83.5213 23.4389 83.5213 25.6687C83.5213 27.8986 84.0398 29.9339 85.0769 31.7748C86.1399 33.5897 87.5529 35.0547 89.316 36.1696C91.0791 37.2585 93.0366 37.803 95.1885 37.803C96.6871 37.803 98.0861 37.5293 99.3856 36.9819C100.236 35.1329 101.315 31.8232 102.134 29.0064C102.077 29.1137 102.018 29.2197 101.956 29.3246C101.333 30.4136 100.491 31.2822 99.4276 31.9304C98.3646 32.5786 97.172 32.9027 95.8497 32.9027C94.5274 32.9027 93.3347 32.5786 92.2717 31.9304C91.2087 31.2822 90.3531 30.4136 89.7049 29.3246C89.0826 28.2097 88.7715 26.9911 88.7715 25.6687C88.7715 24.3205 89.0826 23.1019 89.7049 22.0129C90.3531 20.9239 91.2087 20.0553 92.2717 19.4071C93.3607 18.733 94.5533 18.396 95.8497 18.396C97.172 18.396 98.3646 18.733 99.4276 19.4071C100.491 20.0553 101.333 20.9239 101.956 22.0129C102.604 23.1019 102.928 24.3205 102.928 25.6687C102.928 25.8407 102.923 26.0105 102.912 26.1783C102.926 26.1217 102.941 26.0659 102.955 26.0109L102.854 34.6879C102.865 34.6762 102.877 34.6645 102.889 34.6528V36.8696C102.889 39.2031 102.15 41.0959 100.672 42.5478C99.2202 44.0257 97.2368 44.7647 94.7218 44.7647C93.0366 44.7647 91.5328 44.4017 90.2105 43.6757C88.8882 42.9757 87.8252 42.0682 87.0214 40.9533L85.6214 46.6704C86.7881 47.5779 88.1493 48.2909 89.7049 48.8095Z" fill="white"/>
<path d="M116.787 8.89901C117.086 8.67294 117.086 8.22391 116.787 7.9978L112.775 4.96168C112.402 4.68004 111.869 4.94552 111.869 5.41226L111.869 11.4837C111.869 11.9504 112.402 12.2159 112.774 11.9343L116.787 8.89901Z" fill="white"/>
<path d="M80.2065 7.9966C80.5053 8.22267 80.5054 8.6717 80.2066 8.89781L76.1942 11.9339C75.8221 12.2156 75.2882 11.9501 75.2882 11.4834L75.2882 5.41191C75.2882 4.94521 75.822 4.67972 76.1942 4.96129L80.2065 7.9966Z" fill="white"/>
<path fill-rule="evenodd" clip-rule="evenodd" d="M5.79236 36.1992C7.55469 37.2877 9.51139 37.832 11.6625 37.832C13.2175 37.832 14.6558 37.5469 15.9776 36.9767C15.9941 36.9696 16.0106 36.9624 16.0271 36.9552C16.8115 35.1744 17.776 31.9519 18.5441 29.1519C18.5062 29.2208 18.4671 29.2891 18.4267 29.357C17.8047 30.4455 16.9624 31.3138 15.8998 31.9617C14.8372 32.6096 13.6451 32.9336 12.3233 32.9336C11.0016 32.9336 9.80943 32.6096 8.74685 31.9617C7.68427 31.3138 6.82902 30.4455 6.18111 29.357C5.55911 28.2426 5.24811 27.0245 5.24811 25.7027C5.24811 24.355 5.55911 23.1369 6.18111 22.0483C6.82902 20.9598 7.68427 20.0916 8.74685 19.4437C9.83534 18.7698 11.0275 18.4329 12.3233 18.4329C13.6451 18.4329 14.8372 18.7698 15.8998 19.4437C16.9624 20.0916 17.8047 20.9598 18.4267 22.0483C19.0746 23.1369 19.3986 24.355 19.3986 25.7027C19.3986 25.7769 19.3976 25.8507 19.3956 25.9241C19.397 25.9185 19.3984 25.913 19.3998 25.9074L19.4581 37.3655H24.2579V14.0873C24.0367 14.0873 23.801 14.0805 23.5573 14.0734C22.3831 14.0391 21.0214 13.9994 20.1849 14.6964C19.7054 15.096 19.3986 15.7376 19.3986 16.7612C18.4397 15.7504 17.2993 14.9729 15.9776 14.4287C14.6558 13.8585 13.2175 13.5734 11.6625 13.5734C9.51139 13.5734 7.55469 14.1177 5.79236 15.2062C4.03003 16.2947 2.61758 17.759 1.555 19.5992C0.518332 21.4393 0 23.4738 0 25.7027C0 27.9316 0.518332 29.9661 1.555 31.8062C2.61758 33.6204 4.03003 35.0847 5.79236 36.1992Z" fill="white"/>
<path d="M30.9028 37.3871V18.5286H24.9812V14.0536H28.5473H31.0196V6.34433H36.2758V14.0536C36.2758 14.0536 37.8657 14.0536 38.8844 14.0536C41.9149 14.0536 41.4931 18.5286 41.4931 18.5286H36.3926V37.3871H30.9028Z" fill="white"/>
</svg>
