<svg width="43" height="42" viewBox="0 0 43 42" fill="none" xmlns="http://www.w3.org/2000/svg">
<path d="M8.46662 41.4407C9.03335 42.1864 10.1549 42.1865 10.7217 41.4408L18.8993 30.6835C19.6081 29.751 18.9431 28.4101 17.7718 28.4101H1.4189C0.247657 28.4101 -0.417402 29.7508 0.291285 30.6833L8.46662 41.4407Z" fill="white"/>
<path d="M22.7768 0.591618C22.2274 -0.175348 21.0959 -0.20098 20.5124 0.540326L10.4771 13.2899C10.0782 13.7968 10.0721 14.5093 10.4625 15.0229L20.6371 28.4099L30.5429 41.4406C31.1097 42.1863 32.2313 42.1862 32.798 41.4405L42.0686 29.2419C42.4446 28.7473 42.4542 28.0654 42.0924 27.5603L22.7768 0.591618Z" fill="white"/>
</svg>
